<svg width="473" height="266" viewBox="0 0 473 266" fill="none" xmlns="http://www.w3.org/2000/svg">
<g clip-path="url(#clip0)">
<path fill-rule="evenodd" clip-rule="evenodd" d="M368.568 184.606H363.988V187.736H368.568V184.606Z" fill="#080C1D"/>
<path fill-rule="evenodd" clip-rule="evenodd" d="M363.823 184.971L360.777 175.688L359.001 176.358L362.045 185.641L363.823 184.971Z" fill="#080C1D"/>
<path fill-rule="evenodd" clip-rule="evenodd" d="M366.173 170.47L366.903 173.148C366.903 173.148 367.345 174.394 366.262 174.78C365.042 175.179 355.761 178.134 355.761 178.134L353.672 174.304L366.173 170.47Z" fill="#080C1D"/>
<path fill-rule="evenodd" clip-rule="evenodd" d="M349.482 173.293C349.325 173.23 346.105 171.362 346.105 171.362C346.348 171.099 346.491 170.901 346.848 170.79L363.845 165.455C364.109 165.37 364.386 165.342 364.66 165.372C364.934 165.401 365.2 165.489 365.442 165.629C365.685 165.769 365.899 165.959 366.073 166.188C366.247 166.417 366.377 166.68 366.455 166.963L366.983 168.89C366.983 168.89 352.403 173.467 351.956 173.534L353.486 176.428L349.062 178.078L347.575 173.375C347.575 173.373 349.242 173.373 349.482 173.293Z" fill="#080C1D"/>
<path fill-rule="evenodd" clip-rule="evenodd" d="M367.429 184.894L367.963 184.042C365.044 182.114 364.044 176.967 364.074 173.145L363.086 173.135C363.054 177.41 364.176 182.745 367.429 184.894Z" fill="#080C1D"/>
<path fill-rule="evenodd" clip-rule="evenodd" d="M367.023 186.209C367.023 188.856 368.387 191 370.07 191V181.421C368.387 181.421 367.023 183.564 367.023 186.209Z" fill="#080C1D"/>
</g>
<g clip-path="url(#clip1)">
<path fill-rule="evenodd" clip-rule="evenodd" d="M97.871 87.9175H101.917V91.0479H97.871V87.9175Z" fill="#080C1D"/>
<path fill-rule="evenodd" clip-rule="evenodd" d="M102.063 88.2828L104.753 78.9995L106.323 79.669L103.634 88.9523L102.063 88.2828Z" fill="#080C1D"/>
<path fill-rule="evenodd" clip-rule="evenodd" d="M99.9869 73.7817L99.3422 76.4599C99.3422 76.4599 98.9522 77.7056 99.9086 78.0918C100.986 78.491 109.184 81.4459 109.184 81.4459L111.029 77.6154L99.9869 73.7817Z" fill="#080C1D"/>
<path fill-rule="evenodd" clip-rule="evenodd" d="M114.731 76.6045C114.87 76.5418 117.714 74.6732 117.714 74.6732C117.499 74.4109 117.373 74.2129 117.057 74.1018L102.043 68.7665C101.81 68.6816 101.566 68.6533 101.324 68.6831C101.082 68.713 100.847 68.8005 100.633 68.9405C100.419 69.0806 100.229 69.2705 100.076 69.4994C99.9221 69.7284 99.8072 69.9918 99.7376 70.2746L99.272 72.2011C99.272 72.2011 112.15 76.7784 112.546 76.846L111.194 79.7397L115.102 81.3894L116.415 76.6866C116.415 76.685 114.943 76.685 114.731 76.6045Z" fill="#080C1D"/>
<path fill-rule="evenodd" clip-rule="evenodd" d="M98.8778 88.2054L98.4056 87.354C100.984 85.4259 101.868 80.2789 101.841 76.4564L102.714 76.4468C102.742 80.7215 101.751 86.0568 98.8778 88.2054Z" fill="#080C1D"/>
<path fill-rule="evenodd" clip-rule="evenodd" d="M99.2361 89.5203C99.2361 92.1678 98.0315 94.3116 96.5444 94.3116V84.7322C98.0315 84.7322 99.2361 86.876 99.2361 89.5203Z" fill="#080C1D"/>
</g>
<g clip-path="url(#clip2)">
<path fill-rule="evenodd" clip-rule="evenodd" d="M167.954 255.057H172.001V258.188H167.954V255.057Z" fill="#080C1D"/>
<path fill-rule="evenodd" clip-rule="evenodd" d="M172.146 255.423L174.837 246.139L176.406 246.809L173.717 256.092L172.146 255.423Z" fill="#080C1D"/>
<path fill-rule="evenodd" clip-rule="evenodd" d="M170.07 240.922L169.426 243.6C169.426 243.6 169.036 244.845 169.992 245.232C171.069 245.631 179.268 248.586 179.268 248.586L181.113 244.755L170.07 240.922Z" fill="#080C1D"/>
<path fill-rule="evenodd" clip-rule="evenodd" d="M184.814 243.744C184.953 243.682 187.798 241.813 187.798 241.813C187.583 241.551 187.457 241.353 187.141 241.242L172.127 235.906C171.894 235.822 171.649 235.793 171.407 235.823C171.165 235.853 170.93 235.94 170.716 236.08C170.502 236.221 170.313 236.41 170.159 236.639C170.006 236.868 169.891 237.132 169.821 237.414L169.355 239.341C169.355 239.341 182.234 243.918 182.629 243.986L181.277 246.88L185.186 248.529L186.499 243.827C186.499 243.825 185.026 243.825 184.814 243.744Z" fill="#080C1D"/>
<path fill-rule="evenodd" clip-rule="evenodd" d="M168.961 255.345L168.489 254.494C171.068 252.566 171.951 247.419 171.925 243.596L172.798 243.587C172.826 247.861 171.835 253.197 168.961 255.345Z" fill="#080C1D"/>
<path fill-rule="evenodd" clip-rule="evenodd" d="M169.32 256.66C169.32 259.308 168.115 261.451 166.628 261.451V251.872C168.115 251.872 169.32 254.016 169.32 256.66Z" fill="#080C1D"/>
</g>
<g clip-path="url(#clip3)">
<path d="M443.955 204.648C439.442 201.562 438.254 198.641 438.933 194.652C439.435 191.707 441.077 189.31 441.234 186.37C441.936 187.919 442.229 189.036 442.307 190.654C444.538 187.338 446.013 182.747 446.1 177.925C446.1 177.925 451.911 182.067 452.292 188.324C452.792 187.035 453.044 184.986 452.544 183.659C454.044 184.986 462.828 196.772 451.354 204.648C453.511 199.552 451.911 192.676 448.165 189.5C448.415 190.866 447.977 195.959 446.32 198.197C446.779 194.457 445.883 192.876 445.883 192.876C445.883 192.876 445.575 194.971 444.382 197.086C443.292 199.018 442.538 201.069 443.955 204.648Z" fill="#080C1D"/>
</g>
<g clip-path="url(#clip4)">
<path d="M98.7084 210.478C95.5084 208.29 94.6659 206.219 95.1476 203.391C95.5032 201.302 96.6675 199.603 96.7792 197.518C97.2766 198.616 97.4844 199.408 97.54 200.555C99.1219 198.204 100.167 194.949 100.229 191.529C100.229 191.529 104.35 194.467 104.62 198.903C104.975 197.989 105.153 196.536 104.799 195.595C105.863 196.536 112.091 204.893 103.955 210.478C105.485 206.865 104.35 201.989 101.694 199.737C101.871 200.705 101.56 204.317 100.385 205.904C100.711 203.252 100.075 202.131 100.075 202.131C100.075 202.131 99.8571 203.616 99.0111 205.116C98.2385 206.486 97.7032 207.941 98.7084 210.478Z" fill="#080C1D"/>
</g>
<path d="M416.325 244.125C418.745 244.125 421.003 245.248 422.683 247.286L423.65 246.113C421.712 243.761 419.11 242.465 416.325 242.465C413.54 242.466 410.938 243.761 409 246.113L409.968 247.286C411.648 245.248 413.905 244.125 416.325 244.125ZM420.205 251.02C418.102 248.468 414.549 248.468 412.445 251.02L413.413 252.194C414.991 250.279 417.659 250.279 419.238 252.194L420.205 251.02Z" fill="#080C1D"/>
<path d="M422.098 248.518C418.97 244.722 413.682 244.722 410.554 248.518L411.521 249.692C414.126 246.532 418.526 246.532 421.13 249.692L422.098 248.518Z" fill="#080C1D"/>
<path d="M416.325 255.745C417.081 255.745 417.694 255.002 417.694 254.085C417.694 253.169 417.081 252.425 416.325 252.425C415.57 252.425 414.957 253.169 414.957 254.085C414.957 255.002 415.57 255.745 416.325 255.745Z" fill="#080C1D"/>
<path d="M12.4443 18.3179C15.8675 18.3179 19.0613 19.9065 21.4382 22.7903L22.8067 21.13C20.0649 17.8024 16.3843 15.9695 12.4443 15.9695C8.5043 15.9707 4.82368 17.8024 2.08185 21.13L3.45035 22.7903C5.82731 19.9065 9.02112 18.3179 12.4443 18.3179ZM17.9328 28.0718C14.9577 24.4624 9.93087 24.4624 6.95579 28.0718L8.32429 29.7321C10.557 27.0233 14.3315 27.0233 16.5643 29.7321L17.9328 28.0718Z" fill="#080C1D"/>
<path d="M20.6097 24.5327C16.1849 19.162 8.7046 19.162 4.27972 24.5327L5.64822 26.193C9.33271 21.7229 15.5568 21.7229 19.2413 26.193L20.6097 24.5327Z" fill="#080C1D"/>
<path d="M12.4443 34.7566C13.5133 34.7566 14.3799 33.7052 14.3799 32.4082C14.3799 31.1112 13.5133 30.0598 12.4443 30.0598C11.3753 30.0598 10.5087 31.1112 10.5087 32.4082C10.5087 33.7052 11.3753 34.7566 12.4443 34.7566Z" fill="#080C1D"/>
<path d="M461.379 93.4393C461.379 92.8721 461.759 92.4119 462.226 92.4119H472.146C472.257 92.4119 472.367 92.4384 472.47 92.4901C472.573 92.5417 472.666 92.6174 472.745 92.7128C472.824 92.8082 472.886 92.9215 472.929 93.0461C472.971 93.1708 472.993 93.3044 472.993 93.4393C472.993 93.5742 472.971 93.7078 472.929 93.8325C472.886 93.9571 472.824 94.0704 472.745 94.1658C472.666 94.2612 472.573 94.3369 472.47 94.3885C472.367 94.4401 472.257 94.4667 472.146 94.4667H462.226C462.001 94.4667 461.786 94.3584 461.627 94.1658C461.468 93.9731 461.379 93.7118 461.379 93.4393ZM464.767 100.338C464.767 99.5591 465.021 98.8124 465.475 98.2619C465.929 97.7114 466.544 97.4022 467.186 97.4022C467.828 97.4022 468.443 97.7114 468.897 98.2619C469.351 98.8124 469.606 99.5591 469.606 100.338C469.606 101.116 469.351 101.863 468.897 102.413C468.443 102.964 467.828 103.273 467.186 103.273C466.544 103.273 465.929 102.964 465.475 102.413C465.021 101.863 464.767 101.116 464.767 100.338ZM467.186 102.392C467.408 102.392 467.629 102.339 467.834 102.236C468.04 102.133 468.226 101.981 468.384 101.791C468.541 101.6 468.666 101.373 468.751 101.124C468.836 100.875 468.88 100.607 468.88 100.338C468.88 100.068 468.836 99.8006 468.751 99.5513C468.666 99.302 468.541 99.0755 468.384 98.8846C468.226 98.6938 468.04 98.5425 467.834 98.4392C467.629 98.3359 467.408 98.2828 467.186 98.2828C466.737 98.2828 466.306 98.4993 465.988 98.8846C465.671 99.27 465.492 99.7927 465.492 100.338C465.492 100.883 465.671 101.405 465.988 101.791C466.306 102.176 466.737 102.392 467.186 102.392ZM461.863 95.3473H472.509V99.457C472.509 103.024 470.126 105.915 467.186 105.915C464.246 105.915 461.863 103.024 461.863 99.457V95.3473ZM464.041 100.338C464.041 101.35 464.372 102.32 464.962 103.036C465.552 103.752 466.352 104.154 467.186 104.154C468.02 104.154 468.82 103.752 469.41 103.036C470 102.32 470.331 101.35 470.331 100.338C470.331 99.3255 470 98.3549 469.41 97.6392C468.82 96.9236 468.02 96.5215 467.186 96.5215C466.352 96.5215 465.552 96.9236 464.962 97.6392C464.372 98.3549 464.041 99.3255 464.041 100.338Z" fill="#080C1D"/>
<path d="M221.894 30.1305C221.894 29.3755 222.399 28.7627 223.021 28.7627H236.228C236.376 28.7627 236.523 28.7981 236.66 28.8668C236.797 28.9356 236.921 29.0363 237.025 29.1633C237.13 29.2903 237.213 29.4411 237.27 29.6071C237.327 29.773 237.356 29.9509 237.356 30.1305C237.356 30.3102 237.327 30.488 237.27 30.654C237.213 30.8199 237.13 30.9707 237.025 31.0977C236.921 31.2247 236.797 31.3255 236.66 31.3942C236.523 31.463 236.376 31.4984 236.228 31.4984H223.021C222.722 31.4984 222.435 31.3542 222.224 31.0977C222.013 30.8412 221.894 30.4933 221.894 30.1305ZM226.404 39.3145C226.404 38.278 226.743 37.284 227.347 36.5511C227.951 35.8182 228.77 35.4064 229.625 35.4064C230.479 35.4064 231.298 35.8182 231.902 36.5511C232.507 37.284 232.846 38.278 232.846 39.3145C232.846 40.351 232.507 41.3451 231.902 42.078C231.298 42.8109 230.479 43.2226 229.625 43.2226C228.77 43.2226 227.951 42.8109 227.347 42.078C226.743 41.3451 226.404 40.351 226.404 39.3145ZM229.625 42.0502C229.921 42.0502 230.214 41.9794 230.488 41.842C230.761 41.7045 231.01 41.503 231.219 41.2489C231.429 40.9949 231.595 40.6933 231.708 40.3614C231.821 40.0295 231.88 39.6738 231.88 39.3145C231.88 38.9553 231.821 38.5995 231.708 38.2676C231.595 37.9357 231.429 37.6342 231.219 37.3801C231.01 37.1261 230.761 36.9246 230.488 36.7871C230.214 36.6496 229.921 36.5789 229.625 36.5789C229.027 36.5789 228.453 36.8671 228.03 37.3801C227.607 37.8932 227.37 38.589 227.37 39.3145C227.37 40.0401 227.607 40.7359 228.03 41.2489C228.453 41.762 229.027 42.0502 229.625 42.0502ZM222.538 32.6708H236.711V38.1421C236.711 42.8904 233.539 46.7399 229.625 46.7399C225.711 46.7399 222.538 42.8904 222.538 38.1421V32.6708ZM225.437 39.3145C225.437 40.662 225.878 41.9542 226.664 42.907C227.449 43.8598 228.514 44.3951 229.625 44.3951C230.735 44.3951 231.8 43.8598 232.586 42.907C233.371 41.9542 233.812 40.662 233.812 39.3145C233.812 37.9671 233.371 36.6748 232.586 35.7221C231.8 34.7693 230.735 34.234 229.625 34.234C228.514 34.234 227.449 34.7693 226.664 35.7221C225.878 36.6748 225.437 37.9671 225.437 39.3145Z" fill="#080C1D"/>
<path d="M25.4598 38.9666L91.7387 81.2373" stroke="#FF9900" stroke-width="6"/>
<path d="M215.205 41.7827L121.254 80.0574" stroke="#FF9900" stroke-width="6"/>
<path d="M229.732 53.7104L228.414 109.837" stroke="#FF9900" stroke-width="6"/>
<path d="M248.029 159.524L334.982 173.434" stroke="#FF9900" stroke-width="6"/>
<path d="M99.725 105.738L99.7724 183.073" stroke="#FF9900" stroke-width="6"/>
<path d="M252.335 53.0913L346.698 151.755" stroke="#FF9900" stroke-width="6"/>
<path d="M377.837 180.837L434.595 189.103" stroke="#FF9900" stroke-width="6"/>
<path d="M450.592 105.362L381.122 159.247" stroke="#FF9900" stroke-width="6"/>
<path d="M394.133 240.727L247.116 179.744" stroke="#FF9900" stroke-width="6"/>
<path d="M212.26 174.594L185.411 231.741" stroke="#FF9900" stroke-width="6"/>
<path d="M203.857 159.683L116.568 193.959" stroke="#FF9900" stroke-width="6"/>
<path d="M446.68 213.015L427.459 237.844" stroke="#FF9900" stroke-width="6"/>
<ellipse cx="25.2596" cy="38.4801" rx="2.00239" ry="2.42935" fill="#FF9900"/>
<ellipse rx="2.24357" ry="2.26626" transform="matrix(-0.604531 0.796582 -0.622139 -0.782906 216.747 42.0171)" fill="#FF9900"/>
<ellipse rx="2.29123" ry="2.49093" transform="matrix(0.513014 0.85838 -0.925719 0.378213 230.199 53.05)" fill="#FF9900"/>
<ellipse rx="2.07981" ry="2.58866" transform="matrix(0.878698 -0.477378 0.2091 0.977894 247.09 158.643)" fill="#FF9900"/>
<ellipse rx="2.26043" ry="2.61481" transform="matrix(0.573176 0.819432 -0.94155 0.336872 100.102 105.349)" fill="#FF9900"/>
<ellipse rx="2.00487" ry="2.62116" transform="matrix(0.996124 0.0879568 -0.497139 0.86767 251.654 49.1906)" fill="#FF9900"/>
<ellipse rx="2.06862" ry="2.4019" transform="matrix(0.896356 -0.443334 0.228652 0.973508 378.08 180.821)" fill="#FF9900"/>
<ellipse rx="2.34216" ry="2.24763" transform="matrix(-0.400889 0.916127 -0.832675 -0.553761 383.01 158.887)" fill="#FF9900"/>
<ellipse rx="2.00662" ry="2.10898" transform="matrix(-0.993402 0.114682 -0.102614 -0.994721 251.551 182.865)" fill="#FF9900"/>
<ellipse rx="2.36746" ry="3.62943" transform="matrix(0.335035 0.942206 -0.997596 0.0693005 211.97 175.063)" fill="#FF9900"/>
<ellipse rx="2.36419" ry="4.63368" transform="matrix(-0.344107 0.938931 -0.830767 -0.55662 204.415 159.942)" fill="#FF9900"/>
<ellipse rx="2.39519" ry="1.81818" transform="matrix(-0.24673 0.969084 -0.747913 -0.663797 445.744 213.638)" fill="#FF9900"/>
<ellipse cx="92.5397" cy="82.2086" rx="2.00239" ry="2.42935" fill="#FF9900"/>
<ellipse rx="2.24357" ry="2.26626" transform="matrix(-0.604531 0.796582 -0.622139 -0.782906 120.734 80.0605)" fill="#FF9900"/>
<ellipse rx="2.19811" ry="1.34033" transform="matrix(-0.685053 -0.728493 -0.967902 0.251328 229.174 111.854)" fill="#FF9900"/>
<ellipse rx="2.07981" ry="2.58866" transform="matrix(0.878698 -0.477378 0.2091 0.977894 335.583 173.825)" fill="#FF9900"/>
<ellipse rx="2.26043" ry="2.61481" transform="matrix(0.573176 0.819432 -0.94155 0.336872 99.3124 184.151)" fill="#FF9900"/>
<ellipse rx="2.00487" ry="2.62116" transform="matrix(0.996124 0.0879568 -0.497139 0.86767 346.487 151.01)" fill="#FF9900"/>
<ellipse rx="2.06862" ry="2.4019" transform="matrix(0.896356 -0.443334 0.228652 0.973508 435.844 189.842)" fill="#FF9900"/>
<ellipse rx="2.34216" ry="2.24763" transform="matrix(-0.400889 0.916127 -0.832675 -0.553761 449.435 105.147)" fill="#FF9900"/>
<ellipse rx="2.00655" ry="2.10891" transform="matrix(-0.993515 0.113701 -0.103501 -0.994629 395.076 240.634)" fill="#FF9900"/>
<ellipse rx="2.36746" ry="3.62943" transform="matrix(0.335035 0.942206 -0.997596 0.0693005 183.823 233.134)" fill="#FF9900"/>
<path d="M182.847 262.224L397.703 256.394" stroke="#FF9900" stroke-width="6"/>
<path d="M112.564 216.795L156.416 247.162" stroke="#FF9900" stroke-width="6"/>
<path d="M253.131 37.0225L440.755 91.197" stroke="#FF9900" stroke-width="6"/>
<path d="M460.979 121.564L454.771 168.693" stroke="#FF9900" stroke-width="6"/>
<path d="M30.666 25.3618L209.279 32.164" stroke="#FF9900" stroke-width="6"/>
<path d="M13.8459 47.2258L87.5337 188.128" stroke="#FF9900" stroke-width="6"/>
<ellipse rx="2.3512" ry="4.91125" transform="matrix(-0.378432 0.925629 -0.857264 -0.514877 112.221 194.862)" fill="#FF9900"/>
<ellipse rx="2.39519" ry="1.81818" transform="matrix(-0.24673 0.969084 -0.747913 -0.663797 426.028 238.661)" fill="#FF9900"/>
<path d="M250.723 115.327C256.181 121.162 257.634 132.701 257.054 144C256.473 155.299 253.779 166.352 247.719 173.956C241.621 181.508 232.16 185.563 223.646 184.088C215.132 182.612 207.602 175.658 203.065 167.357C198.53 159.007 196.986 149.359 197.102 139.39C197.218 129.421 198.956 119.08 204.133 113.994C209.311 108.907 217.927 109.076 226.906 109.221C235.885 109.367 245.304 109.543 250.723 115.327Z" fill="#FF9900"/>
<path d="M232.44 148.792C232.219 148.704 230.826 147.943 231.697 144.732H231.684C233.954 141.896 235.688 137.333 235.688 132.841C235.688 125.934 231.902 122.313 227.502 122.313C223.099 122.313 219.334 125.932 219.334 132.841C219.334 137.352 221.059 141.933 223.342 144.762C224.232 147.594 222.64 148.646 222.308 148.792C217.7 150.815 212.293 154.5 212.293 158.138V159.502C212.293 164.458 220.214 165.585 227.545 165.585C234.887 165.585 242.708 164.458 242.708 159.502V158.138C242.708 154.391 237.275 150.734 232.44 148.792ZM224.793 163.439C224.793 159.152 227.043 153.365 227.043 153.365L225.486 151.883C225.486 150.467 227.501 148.985 227.501 148.985C227.501 148.985 229.509 150.491 229.509 151.883L227.958 153.365C227.958 153.365 230.208 159.13 230.208 163.486C230.208 164.169 224.793 164.011 224.793 163.439Z" fill="#080C1D"/>
<defs>
<clipPath id="clip0">
<rect width="24.0286" height="25.7511" fill="white" transform="matrix(-1 0 0 1 370.07 165.292)"/>
</clipPath>
<clipPath id="clip1">
<rect width="21.2253" height="25.7511" fill="white" transform="translate(96.5444 68.604)"/>
</clipPath>
<clipPath id="clip2">
<rect width="21.2253" height="25.7511" fill="white" transform="translate(166.628 235.744)"/>
</clipPath>
<clipPath id="clip3">
<rect width="22.0262" height="26.7229" fill="white" transform="translate(436.95 177.925)"/>
</clipPath>
<clipPath id="clip4">
<rect width="15.6186" height="18.9489" fill="white" transform="translate(93.7411 191.529)"/>
</clipPath>
</defs>
</svg>
