<?xml version="1.0" standalone="no"?>
<svg viewBox="0 0 200 200" xmlns="http://www.w3.org/2000/svg">
  <path fill="#FF0066" d="M48.8,-66.4C63.4,-56.6,75.5,-42.5,79,-26.8C82.5,-11.1,77.5,6.2,71,22.1C64.5,38,56.6,52.5,44.5,61.3C32.5,70.1,16.2,73.2,0.7,72.3C-14.9,71.3,-29.8,66.4,-44.6,58.5C-59.4,50.6,-74.1,39.7,-79.2,25.4C-84.3,11.1,-79.9,-6.7,-74.4,-24.3C-68.9,-41.9,-62.3,-59.3,-49.7,-69.7C-37.1,-80.1,-18.6,-83.6,-0.7,-82.6C17.1,-81.6,34.2,-76.1,48.8,-66.4Z" transform="translate(100 100)" />
</svg>
