<svg width="313" height="443" viewBox="0 0 313 443" fill="none" xmlns="http://www.w3.org/2000/svg">
<rect x="41.6566" y="23.9955" width="5" height="5" transform="rotate(36.8841 41.6566 23.9955)" fill="#CCDDE4"/>
<rect x="17.6487" y="55.9896" width="5" height="5" transform="rotate(36.8841 17.6487 55.9896)" fill="#CCDDE4"/>
<rect x="80.3609" y="410.605" width="5" height="5" transform="rotate(-143.116 80.3609 410.605)" fill="#CCDDE4"/>
<rect x="30.7701" y="373.393" width="5" height="5" transform="rotate(-143.116 30.7701 373.393)" fill="#CCDDE4"/>
<rect x="108.844" y="74.4122" width="5" height="5" transform="rotate(36.8841 108.844 74.4122)" fill="#CCDDE4"/>
<rect x="84.8362" y="106.406" width="5" height="5" transform="rotate(36.8841 84.8362 106.406)" fill="#CCDDE4"/>
<rect x="56.6268" y="143.999" width="5" height="5" transform="rotate(36.8841 56.6268 143.999)" fill="#CCDDE4"/>
<rect x="32.0187" y="176.793" width="5" height="5" transform="rotate(36.8841 32.0187 176.793)" fill="#CCDDE4"/>
<rect x="5.00983" y="212.786" width="5" height="5" transform="rotate(36.8841 5.00983 212.786)" fill="#CCDDE4"/>
<rect x="130.822" y="343.451" width="5" height="5" transform="rotate(-143.116 130.822 343.451)" fill="#CCDDE4"/>
<rect x="81.2314" y="306.239" width="5" height="5" transform="rotate(-143.116 81.2314 306.239)" fill="#CCDDE4"/>
<rect x="34.0402" y="270.827" width="5" height="5" transform="rotate(-143.116 34.0402 270.827)" fill="#CCDDE4"/>
<rect x="167.233" y="118.227" width="5" height="5" transform="rotate(36.8841 167.233 118.227)" fill="#CCDDE4"/>
<rect x="143.225" y="150.221" width="5" height="5" transform="rotate(36.8841 143.225 150.221)" fill="#CCDDE4"/>
<rect x="115.016" y="187.814" width="5" height="5" transform="rotate(36.8841 115.016 187.814)" fill="#CCDDE4"/>
<rect x="90.4079" y="220.608" width="5" height="5" transform="rotate(36.8841 90.4079 220.608)" fill="#CCDDE4"/>
<rect x="63.399" y="256.601" width="5" height="5" transform="rotate(36.8841 63.399 256.601)" fill="#CCDDE4"/>
<rect x="35.7899" y="293.394" width="5" height="5" transform="rotate(36.8841 35.7899 293.394)" fill="#CCDDE4"/>
<rect x="11.1817" y="326.188" width="5" height="5" transform="rotate(36.8841 11.1817 326.188)" fill="#CCDDE4"/>
<rect x="174.676" y="285.091" width="5" height="5" transform="rotate(-143.116 174.676 285.091)" fill="#CCDDE4"/>
<rect x="125.085" y="247.879" width="5" height="5" transform="rotate(-143.116 125.085 247.879)" fill="#CCDDE4"/>
<rect x="77.8935" y="212.467" width="5" height="5" transform="rotate(-143.116 77.8935 212.467)" fill="#CCDDE4"/>
<rect x="20.3042" y="169.253" width="5" height="5" transform="rotate(-143.116 20.3042 169.253)" fill="#CCDDE4"/>
<rect x="234.421" y="168.643" width="5" height="5" transform="rotate(36.8841 234.421 168.643)" fill="#CCDDE4"/>
<rect x="210.413" y="200.637" width="5" height="5" transform="rotate(36.8841 210.413 200.637)" fill="#CCDDE4"/>
<rect x="182.204" y="238.23" width="5" height="5" transform="rotate(36.8841 182.204 238.23)" fill="#CCDDE4"/>
<rect x="157.595" y="271.024" width="5" height="5" transform="rotate(36.8841 157.595 271.024)" fill="#CCDDE4"/>
<rect x="130.586" y="307.018" width="5" height="5" transform="rotate(36.8841 130.586 307.018)" fill="#CCDDE4"/>
<rect x="102.977" y="343.811" width="5" height="5" transform="rotate(36.8841 102.977 343.811)" fill="#CCDDE4"/>
<rect x="78.3693" y="376.605" width="5" height="5" transform="rotate(36.8841 78.3693 376.605)" fill="#CCDDE4"/>
<rect x="225.137" y="217.937" width="5" height="5" transform="rotate(-143.116 225.137 217.937)" fill="#CCDDE4"/>
<rect x="175.546" y="180.725" width="5" height="5" transform="rotate(-143.116 175.546 180.725)" fill="#CCDDE4"/>
<rect x="128.355" y="145.313" width="5" height="5" transform="rotate(-143.116 128.355 145.313)" fill="#CCDDE4"/>
<rect x="70.7656" y="102.099" width="5" height="5" transform="rotate(-143.116 70.7656 102.099)" fill="#CCDDE4"/>
<rect x="52.8545" y="32.3983" width="5" height="5" transform="rotate(36.8841 52.8545 32.3983)" fill="#CCDDE4"/>
<rect x="28.8466" y="64.3923" width="5" height="5" transform="rotate(36.8841 28.8466 64.3923)" fill="#CCDDE4"/>
<rect x="0.637268" y="101.985" width="5" height="5" transform="rotate(36.8841 0.637268 101.985)" fill="#CCDDE4"/>
<rect x="88.7713" y="399.413" width="5" height="5" transform="rotate(-143.116 88.7713 399.413)" fill="#CCDDE4"/>
<rect x="39.1805" y="362.201" width="5" height="5" transform="rotate(-143.116 39.1805 362.201)" fill="#CCDDE4"/>
<rect x="120.042" y="82.8149" width="5" height="5" transform="rotate(36.8841 120.042 82.8149)" fill="#CCDDE4"/>
<rect x="96.0341" y="114.809" width="5" height="5" transform="rotate(36.8841 96.0341 114.809)" fill="#CCDDE4"/>
<rect x="67.8248" y="152.402" width="5" height="5" transform="rotate(36.8841 67.8248 152.402)" fill="#CCDDE4"/>
<rect x="43.2167" y="185.196" width="5" height="5" transform="rotate(36.8841 43.2167 185.196)" fill="#CCDDE4"/>
<rect x="16.2078" y="221.189" width="5" height="5" transform="rotate(36.8841 16.2078 221.189)" fill="#CCDDE4"/>
<rect x="139.232" y="332.259" width="5" height="5" transform="rotate(-143.116 139.232 332.259)" fill="#CCDDE4"/>
<rect x="89.6416" y="295.047" width="5" height="5" transform="rotate(-143.116 89.6416 295.047)" fill="#CCDDE4"/>
<rect x="42.4504" y="259.635" width="5" height="5" transform="rotate(-143.116 42.4504 259.635)" fill="#CCDDE4"/>
<rect x="178.431" y="126.629" width="5" height="5" transform="rotate(36.8841 178.431 126.629)" fill="#CCDDE4"/>
<rect x="154.423" y="158.624" width="5" height="5" transform="rotate(36.8841 154.423 158.624)" fill="#CCDDE4"/>
<rect x="126.214" y="196.217" width="5" height="5" transform="rotate(36.8841 126.214 196.217)" fill="#CCDDE4"/>
<rect x="101.606" y="229.01" width="5" height="5" transform="rotate(36.8841 101.606 229.01)" fill="#CCDDE4"/>
<rect x="74.5969" y="265.004" width="5" height="5" transform="rotate(36.8841 74.5969 265.004)" fill="#CCDDE4"/>
<rect x="46.9878" y="301.797" width="5" height="5" transform="rotate(36.8841 46.9878 301.797)" fill="#CCDDE4"/>
<rect x="22.3796" y="334.591" width="5" height="5" transform="rotate(36.8841 22.3796 334.591)" fill="#CCDDE4"/>
<rect x="183.086" y="273.899" width="5" height="5" transform="rotate(-143.116 183.086 273.899)" fill="#CCDDE4"/>
<rect x="133.495" y="236.687" width="5" height="5" transform="rotate(-143.116 133.495 236.687)" fill="#CCDDE4"/>
<rect x="86.3037" y="201.275" width="5" height="5" transform="rotate(-143.116 86.3037 201.275)" fill="#CCDDE4"/>
<rect x="28.7144" y="158.061" width="5" height="5" transform="rotate(-143.116 28.7144 158.061)" fill="#CCDDE4"/>
<rect x="245.619" y="177.046" width="5" height="5" transform="rotate(36.8841 245.619 177.046)" fill="#CCDDE4"/>
<rect x="221.611" y="209.04" width="5" height="5" transform="rotate(36.8841 221.611 209.04)" fill="#CCDDE4"/>
<rect x="193.401" y="246.633" width="5" height="5" transform="rotate(36.8841 193.401 246.633)" fill="#CCDDE4"/>
<rect x="168.793" y="279.427" width="5" height="5" transform="rotate(36.8841 168.793 279.427)" fill="#CCDDE4"/>
<rect x="141.784" y="315.42" width="5" height="5" transform="rotate(36.8841 141.784 315.42)" fill="#CCDDE4"/>
<rect x="114.175" y="352.214" width="5" height="5" transform="rotate(36.8841 114.175 352.214)" fill="#CCDDE4"/>
<rect x="89.5671" y="385.007" width="5" height="5" transform="rotate(36.8841 89.5671 385.007)" fill="#CCDDE4"/>
<rect x="233.547" y="206.745" width="5" height="5" transform="rotate(-143.116 233.547 206.745)" fill="#CCDDE4"/>
<rect x="183.956" y="169.533" width="5" height="5" transform="rotate(-143.116 183.956 169.533)" fill="#CCDDE4"/>
<rect x="136.765" y="134.121" width="5" height="5" transform="rotate(-143.116 136.765 134.121)" fill="#CCDDE4"/>
<rect x="79.1758" y="90.9066" width="5" height="5" transform="rotate(-143.116 79.1758 90.9066)" fill="#CCDDE4"/>
<rect x="64.0524" y="40.8011" width="5" height="5" transform="rotate(36.8841 64.0524 40.8011)" fill="#CCDDE4"/>
<rect x="40.0445" y="72.7952" width="5" height="5" transform="rotate(36.8841 40.0445 72.7952)" fill="#CCDDE4"/>
<rect x="11.8352" y="110.388" width="5" height="5" transform="rotate(36.8841 11.8352 110.388)" fill="#CCDDE4"/>
<rect x="97.1815" y="388.22" width="5" height="5" transform="rotate(-143.116 97.1815 388.22)" fill="#CCDDE4"/>
<rect x="47.5907" y="351.008" width="5" height="5" transform="rotate(-143.116 47.5907 351.008)" fill="#CCDDE4"/>
<rect x="0.399475" y="315.597" width="5" height="5" transform="rotate(-143.116 0.399475 315.597)" fill="#CCDDE4"/>
<rect x="131.24" y="91.2178" width="5" height="5" transform="rotate(36.8841 131.24 91.2178)" fill="#CCDDE4"/>
<rect x="107.232" y="123.212" width="5" height="5" transform="rotate(36.8841 107.232 123.212)" fill="#CCDDE4"/>
<rect x="79.0227" y="160.805" width="5" height="5" transform="rotate(36.8841 79.0227 160.805)" fill="#CCDDE4"/>
<rect x="54.4146" y="193.599" width="5" height="5" transform="rotate(36.8841 54.4146 193.599)" fill="#CCDDE4"/>
<rect x="27.4056" y="229.592" width="5" height="5" transform="rotate(36.8841 27.4056 229.592)" fill="#CCDDE4"/>
<rect x="-0.203491" y="266.385" width="5" height="5" transform="rotate(36.8841 -0.203491 266.385)" fill="#CCDDE4"/>
<rect x="147.643" y="321.067" width="5" height="5" transform="rotate(-143.116 147.643 321.067)" fill="#CCDDE4"/>
<rect x="98.052" y="283.854" width="5" height="5" transform="rotate(-143.116 98.052 283.854)" fill="#CCDDE4"/>
<rect x="50.8608" y="248.443" width="5" height="5" transform="rotate(-143.116 50.8608 248.443)" fill="#CCDDE4"/>
<rect x="189.629" y="135.032" width="5" height="5" transform="rotate(36.8841 189.629 135.032)" fill="#CCDDE4"/>
<rect x="165.621" y="167.026" width="5" height="5" transform="rotate(36.8841 165.621 167.026)" fill="#CCDDE4"/>
<rect x="137.412" y="204.619" width="5" height="5" transform="rotate(36.8841 137.412 204.619)" fill="#CCDDE4"/>
<rect x="112.804" y="237.413" width="5" height="5" transform="rotate(36.8841 112.804 237.413)" fill="#CCDDE4"/>
<rect x="85.7948" y="273.406" width="5" height="5" transform="rotate(36.8841 85.7948 273.406)" fill="#CCDDE4"/>
<rect x="58.1857" y="310.2" width="5" height="5" transform="rotate(36.8841 58.1857 310.2)" fill="#CCDDE4"/>
<rect x="33.5776" y="342.994" width="5" height="5" transform="rotate(36.8841 33.5776 342.994)" fill="#CCDDE4"/>
<rect x="191.496" y="262.707" width="5" height="5" transform="rotate(-143.116 191.496 262.707)" fill="#CCDDE4"/>
<rect x="141.905" y="225.494" width="5" height="5" transform="rotate(-143.116 141.905 225.494)" fill="#CCDDE4"/>
<rect x="94.7139" y="190.083" width="5" height="5" transform="rotate(-143.116 94.7139 190.083)" fill="#CCDDE4"/>
<rect x="37.1246" y="146.868" width="5" height="5" transform="rotate(-143.116 37.1246 146.868)" fill="#CCDDE4"/>
<rect x="256.817" y="185.449" width="5" height="5" transform="rotate(36.8841 256.817 185.449)" fill="#CCDDE4"/>
<rect x="232.809" y="217.443" width="5" height="5" transform="rotate(36.8841 232.809 217.443)" fill="#CCDDE4"/>
<rect x="204.599" y="255.036" width="5" height="5" transform="rotate(36.8841 204.599 255.036)" fill="#CCDDE4"/>
<rect x="179.991" y="287.83" width="5" height="5" transform="rotate(36.8841 179.991 287.83)" fill="#CCDDE4"/>
<rect x="152.982" y="323.823" width="5" height="5" transform="rotate(36.8841 152.982 323.823)" fill="#CCDDE4"/>
<rect x="125.373" y="360.616" width="5" height="5" transform="rotate(36.8841 125.373 360.616)" fill="#CCDDE4"/>
<rect x="100.765" y="393.41" width="5" height="5" transform="rotate(36.8841 100.765 393.41)" fill="#CCDDE4"/>
<rect x="241.957" y="195.553" width="5" height="5" transform="rotate(-143.116 241.957 195.553)" fill="#CCDDE4"/>
<rect x="192.366" y="158.34" width="5" height="5" transform="rotate(-143.116 192.366 158.34)" fill="#CCDDE4"/>
<rect x="145.175" y="122.929" width="5" height="5" transform="rotate(-143.116 145.175 122.929)" fill="#CCDDE4"/>
<rect x="87.5859" y="79.7144" width="5" height="5" transform="rotate(-143.116 87.5859 79.7144)" fill="#CCDDE4"/>
<rect x="75.2504" y="49.2039" width="5" height="5" transform="rotate(36.8841 75.2504 49.2039)" fill="#CCDDE4"/>
<rect x="51.2424" y="81.1979" width="5" height="5" transform="rotate(36.8841 51.2424 81.1979)" fill="#CCDDE4"/>
<rect x="23.0331" y="118.791" width="5" height="5" transform="rotate(36.8841 23.0331 118.791)" fill="#CCDDE4"/>
<rect x="-1.57501" y="151.585" width="5" height="5" transform="rotate(36.8841 -1.57501 151.585)" fill="#CCDDE4"/>
<rect x="105.592" y="377.028" width="5" height="5" transform="rotate(-143.116 105.592 377.028)" fill="#CCDDE4"/>
<rect x="56.0009" y="339.816" width="5" height="5" transform="rotate(-143.116 56.0009 339.816)" fill="#CCDDE4"/>
<rect x="8.80963" y="304.404" width="5" height="5" transform="rotate(-143.116 8.80963 304.404)" fill="#CCDDE4"/>
<rect x="142.438" y="99.6205" width="5" height="5" transform="rotate(36.8841 142.438 99.6205)" fill="#CCDDE4"/>
<rect x="118.43" y="131.615" width="5" height="5" transform="rotate(36.8841 118.43 131.615)" fill="#CCDDE4"/>
<rect x="90.2206" y="169.208" width="5" height="5" transform="rotate(36.8841 90.2206 169.208)" fill="#CCDDE4"/>
<rect x="65.6125" y="202.001" width="5" height="5" transform="rotate(36.8841 65.6125 202.001)" fill="#CCDDE4"/>
<rect x="38.6036" y="237.995" width="5" height="5" transform="rotate(36.8841 38.6036 237.995)" fill="#CCDDE4"/>
<rect x="10.9944" y="274.788" width="5" height="5" transform="rotate(36.8841 10.9944 274.788)" fill="#CCDDE4"/>
<rect x="156.053" y="309.874" width="5" height="5" transform="rotate(-143.116 156.053 309.874)" fill="#CCDDE4"/>
<rect x="106.462" y="272.662" width="5" height="5" transform="rotate(-143.116 106.462 272.662)" fill="#CCDDE4"/>
<rect x="59.2709" y="237.25" width="5" height="5" transform="rotate(-143.116 59.2709 237.25)" fill="#CCDDE4"/>
<rect x="1.68164" y="194.036" width="5" height="5" transform="rotate(-143.116 1.68164 194.036)" fill="#CCDDE4"/>
<rect x="200.827" y="143.435" width="5" height="5" transform="rotate(36.8841 200.827 143.435)" fill="#CCDDE4"/>
<rect x="176.819" y="175.429" width="5" height="5" transform="rotate(36.8841 176.819 175.429)" fill="#CCDDE4"/>
<rect x="148.61" y="213.022" width="5" height="5" transform="rotate(36.8841 148.61 213.022)" fill="#CCDDE4"/>
<rect x="124.002" y="245.816" width="5" height="5" transform="rotate(36.8841 124.002 245.816)" fill="#CCDDE4"/>
<rect x="96.9927" y="281.809" width="5" height="5" transform="rotate(36.8841 96.9927 281.809)" fill="#CCDDE4"/>
<rect x="69.3836" y="318.602" width="5" height="5" transform="rotate(36.8841 69.3836 318.602)" fill="#CCDDE4"/>
<rect x="44.7755" y="351.396" width="5" height="5" transform="rotate(36.8841 44.7755 351.396)" fill="#CCDDE4"/>
<rect x="199.906" y="251.514" width="5" height="5" transform="rotate(-143.116 199.906 251.514)" fill="#CCDDE4"/>
<rect x="150.315" y="214.302" width="5" height="5" transform="rotate(-143.116 150.315 214.302)" fill="#CCDDE4"/>
<rect x="103.124" y="178.89" width="5" height="5" transform="rotate(-143.116 103.124 178.89)" fill="#CCDDE4"/>
<rect x="45.5348" y="135.676" width="5" height="5" transform="rotate(-143.116 45.5348 135.676)" fill="#CCDDE4"/>
<rect x="268.015" y="193.852" width="5" height="5" transform="rotate(36.8841 268.015 193.852)" fill="#CCDDE4"/>
<rect x="244.007" y="225.846" width="5" height="5" transform="rotate(36.8841 244.007 225.846)" fill="#CCDDE4"/>
<rect x="215.797" y="263.439" width="5" height="5" transform="rotate(36.8841 215.797 263.439)" fill="#CCDDE4"/>
<rect x="191.189" y="296.233" width="5" height="5" transform="rotate(36.8841 191.189 296.233)" fill="#CCDDE4"/>
<rect x="164.18" y="332.226" width="5" height="5" transform="rotate(36.8841 164.18 332.226)" fill="#CCDDE4"/>
<rect x="136.571" y="369.019" width="5" height="5" transform="rotate(36.8841 136.571 369.019)" fill="#CCDDE4"/>
<rect x="111.963" y="401.813" width="5" height="5" transform="rotate(36.8841 111.963 401.813)" fill="#CCDDE4"/>
<rect x="250.367" y="184.36" width="5" height="5" transform="rotate(-143.116 250.367 184.36)" fill="#CCDDE4"/>
<rect x="200.777" y="147.148" width="5" height="5" transform="rotate(-143.116 200.777 147.148)" fill="#CCDDE4"/>
<rect x="153.585" y="111.736" width="5" height="5" transform="rotate(-143.116 153.585 111.736)" fill="#CCDDE4"/>
<rect x="95.9962" y="68.522" width="5" height="5" transform="rotate(-143.116 95.9962 68.522)" fill="#CCDDE4"/>
<rect x="86.4482" y="57.6067" width="5" height="5" transform="rotate(36.8841 86.4482 57.6067)" fill="#CCDDE4"/>
<rect x="62.4403" y="89.6007" width="5" height="5" transform="rotate(36.8841 62.4403 89.6007)" fill="#CCDDE4"/>
<rect x="34.231" y="127.194" width="5" height="5" transform="rotate(36.8841 34.231 127.194)" fill="#CCDDE4"/>
<rect x="9.62292" y="159.988" width="5" height="5" transform="rotate(36.8841 9.62292 159.988)" fill="#CCDDE4"/>
<rect x="114.002" y="365.836" width="5" height="5" transform="rotate(-143.116 114.002 365.836)" fill="#CCDDE4"/>
<rect x="64.4111" y="328.624" width="5" height="5" transform="rotate(-143.116 64.4111 328.624)" fill="#CCDDE4"/>
<rect x="17.2198" y="293.212" width="5" height="5" transform="rotate(-143.116 17.2198 293.212)" fill="#CCDDE4"/>
<rect x="153.636" y="108.023" width="5" height="5" transform="rotate(36.8841 153.636 108.023)" fill="#CCDDE4"/>
<rect x="129.628" y="140.017" width="5" height="5" transform="rotate(36.8841 129.628 140.017)" fill="#CCDDE4"/>
<rect x="101.419" y="177.61" width="5" height="5" transform="rotate(36.8841 101.419 177.61)" fill="#CCDDE4"/>
<rect x="76.8104" y="210.404" width="5" height="5" transform="rotate(36.8841 76.8104 210.404)" fill="#CCDDE4"/>
<rect x="49.8015" y="246.398" width="5" height="5" transform="rotate(36.8841 49.8015 246.398)" fill="#CCDDE4"/>
<rect x="22.1924" y="283.191" width="5" height="5" transform="rotate(36.8841 22.1924 283.191)" fill="#CCDDE4"/>
<rect x="-2.41577" y="315.985" width="5" height="5" transform="rotate(36.8841 -2.41577 315.985)" fill="#CCDDE4"/>
<rect x="164.463" y="298.682" width="5" height="5" transform="rotate(-143.116 164.463 298.682)" fill="#CCDDE4"/>
<rect x="114.872" y="261.47" width="5" height="5" transform="rotate(-143.116 114.872 261.47)" fill="#CCDDE4"/>
<rect x="67.6812" y="226.058" width="5" height="5" transform="rotate(-143.116 67.6812 226.058)" fill="#CCDDE4"/>
<rect x="10.0919" y="182.844" width="5" height="5" transform="rotate(-143.116 10.0919 182.844)" fill="#CCDDE4"/>
<rect x="212.025" y="151.838" width="5" height="5" transform="rotate(36.8841 212.025 151.838)" fill="#CCDDE4"/>
<rect x="188.017" y="183.832" width="5" height="5" transform="rotate(36.8841 188.017 183.832)" fill="#CCDDE4"/>
<rect x="159.808" y="221.425" width="5" height="5" transform="rotate(36.8841 159.808 221.425)" fill="#CCDDE4"/>
<rect x="135.2" y="254.219" width="5" height="5" transform="rotate(36.8841 135.2 254.219)" fill="#CCDDE4"/>
<rect x="108.191" y="290.212" width="5" height="5" transform="rotate(36.8841 108.191 290.212)" fill="#CCDDE4"/>
<rect x="80.5815" y="327.005" width="5" height="5" transform="rotate(36.8841 80.5815 327.005)" fill="#CCDDE4"/>
<rect x="55.9734" y="359.799" width="5" height="5" transform="rotate(36.8841 55.9734 359.799)" fill="#CCDDE4"/>
<rect x="208.316" y="240.322" width="5" height="5" transform="rotate(-143.116 208.316 240.322)" fill="#CCDDE4"/>
<rect x="158.726" y="203.11" width="5" height="5" transform="rotate(-143.116 158.726 203.11)" fill="#CCDDE4"/>
<rect x="111.534" y="167.698" width="5" height="5" transform="rotate(-143.116 111.534 167.698)" fill="#CCDDE4"/>
<rect x="53.9452" y="124.484" width="5" height="5" transform="rotate(-143.116 53.9452 124.484)" fill="#CCDDE4"/>
<rect x="279.212" y="202.254" width="5" height="5" transform="rotate(36.8841 279.212 202.254)" fill="#CCDDE4"/>
<rect x="255.205" y="234.248" width="5" height="5" transform="rotate(36.8841 255.205 234.248)" fill="#CCDDE4"/>
<rect x="226.995" y="271.841" width="5" height="5" transform="rotate(36.8841 226.995 271.841)" fill="#CCDDE4"/>
<rect x="202.387" y="304.635" width="5" height="5" transform="rotate(36.8841 202.387 304.635)" fill="#CCDDE4"/>
<rect x="175.378" y="340.629" width="5" height="5" transform="rotate(36.8841 175.378 340.629)" fill="#CCDDE4"/>
<rect x="147.769" y="377.422" width="5" height="5" transform="rotate(36.8841 147.769 377.422)" fill="#CCDDE4"/>
<rect x="123.161" y="410.216" width="5" height="5" transform="rotate(36.8841 123.161 410.216)" fill="#CCDDE4"/>
<rect x="258.778" y="173.168" width="5" height="5" transform="rotate(-143.116 258.778 173.168)" fill="#CCDDE4"/>
<rect x="209.187" y="135.956" width="5" height="5" transform="rotate(-143.116 209.187 135.956)" fill="#CCDDE4"/>
<rect x="161.996" y="100.544" width="5" height="5" transform="rotate(-143.116 161.996 100.544)" fill="#CCDDE4"/>
<rect x="104.406" y="57.3296" width="5" height="5" transform="rotate(-143.116 104.406 57.3296)" fill="#CCDDE4"/>
<rect x="97.6462" y="66.0094" width="5" height="5" transform="rotate(36.8841 97.6462 66.0094)" fill="#CCDDE4"/>
<rect x="73.6382" y="98.0034" width="5" height="5" transform="rotate(36.8841 73.6382 98.0034)" fill="#CCDDE4"/>
<rect x="45.429" y="135.596" width="5" height="5" transform="rotate(36.8841 45.429 135.596)" fill="#CCDDE4"/>
<rect x="20.8208" y="168.39" width="5" height="5" transform="rotate(36.8841 20.8208 168.39)" fill="#CCDDE4"/>
<rect x="122.412" y="354.643" width="5" height="5" transform="rotate(-143.116 122.412 354.643)" fill="#CCDDE4"/>
<rect x="72.8213" y="317.431" width="5" height="5" transform="rotate(-143.116 72.8213 317.431)" fill="#CCDDE4"/>
<rect x="25.6301" y="282.019" width="5" height="5" transform="rotate(-143.116 25.6301 282.019)" fill="#CCDDE4"/>
<rect x="164.834" y="116.426" width="5" height="5" transform="rotate(36.8841 164.834 116.426)" fill="#CCDDE4"/>
<rect x="140.826" y="148.42" width="5" height="5" transform="rotate(36.8841 140.826 148.42)" fill="#CCDDE4"/>
<rect x="112.616" y="186.013" width="5" height="5" transform="rotate(36.8841 112.616 186.013)" fill="#CCDDE4"/>
<rect x="88.0083" y="218.807" width="5" height="5" transform="rotate(36.8841 88.0083 218.807)" fill="#CCDDE4"/>
<rect x="60.9994" y="254.8" width="5" height="5" transform="rotate(36.8841 60.9994 254.8)" fill="#CCDDE4"/>
<rect x="33.3903" y="291.594" width="5" height="5" transform="rotate(36.8841 33.3903 291.594)" fill="#CCDDE4"/>
<rect x="8.78217" y="324.387" width="5" height="5" transform="rotate(36.8841 8.78217 324.387)" fill="#CCDDE4"/>
<rect x="172.873" y="287.49" width="5" height="5" transform="rotate(-143.116 172.873 287.49)" fill="#CCDDE4"/>
<rect x="123.283" y="250.277" width="5" height="5" transform="rotate(-143.116 123.283 250.277)" fill="#CCDDE4"/>
<rect x="76.0913" y="214.866" width="5" height="5" transform="rotate(-143.116 76.0913 214.866)" fill="#CCDDE4"/>
<rect x="18.502" y="171.651" width="5" height="5" transform="rotate(-143.116 18.502 171.651)" fill="#CCDDE4"/>
<rect x="223.223" y="160.24" width="5" height="5" transform="rotate(36.8841 223.223 160.24)" fill="#CCDDE4"/>
<rect x="199.215" y="192.235" width="5" height="5" transform="rotate(36.8841 199.215 192.235)" fill="#CCDDE4"/>
<rect x="171.006" y="229.828" width="5" height="5" transform="rotate(36.8841 171.006 229.828)" fill="#CCDDE4"/>
<rect x="146.397" y="262.621" width="5" height="5" transform="rotate(36.8841 146.397 262.621)" fill="#CCDDE4"/>
<rect x="119.389" y="298.615" width="5" height="5" transform="rotate(36.8841 119.389 298.615)" fill="#CCDDE4"/>
<rect x="91.7794" y="335.408" width="5" height="5" transform="rotate(36.8841 91.7794 335.408)" fill="#CCDDE4"/>
<rect x="67.1713" y="368.202" width="5" height="5" transform="rotate(36.8841 67.1713 368.202)" fill="#CCDDE4"/>
<rect x="216.727" y="229.13" width="5" height="5" transform="rotate(-143.116 216.727 229.13)" fill="#CCDDE4"/>
<rect x="167.136" y="191.917" width="5" height="5" transform="rotate(-143.116 167.136 191.917)" fill="#CCDDE4"/>
<rect x="119.945" y="156.506" width="5" height="5" transform="rotate(-143.116 119.945 156.506)" fill="#CCDDE4"/>
<rect x="62.3553" y="113.291" width="5" height="5" transform="rotate(-143.116 62.3553 113.291)" fill="#CCDDE4"/>
<rect x="290.41" y="210.657" width="5" height="5" transform="rotate(36.8841 290.41 210.657)" fill="#CCDDE4"/>
<rect x="266.402" y="242.651" width="5" height="5" transform="rotate(36.8841 266.402 242.651)" fill="#CCDDE4"/>
<rect x="238.193" y="280.244" width="5" height="5" transform="rotate(36.8841 238.193 280.244)" fill="#CCDDE4"/>
<rect x="213.585" y="313.038" width="5" height="5" transform="rotate(36.8841 213.585 313.038)" fill="#CCDDE4"/>
<rect x="186.576" y="349.031" width="5" height="5" transform="rotate(36.8841 186.576 349.031)" fill="#CCDDE4"/>
<rect x="158.967" y="385.825" width="5" height="5" transform="rotate(36.8841 158.967 385.825)" fill="#CCDDE4"/>
<rect x="134.359" y="418.619" width="5" height="5" transform="rotate(36.8841 134.359 418.619)" fill="#CCDDE4"/>
<rect x="267.188" y="161.976" width="5" height="5" transform="rotate(-143.116 267.188 161.976)" fill="#CCDDE4"/>
<rect x="217.597" y="124.763" width="5" height="5" transform="rotate(-143.116 217.597 124.763)" fill="#CCDDE4"/>
<rect x="170.406" y="89.3517" width="5" height="5" transform="rotate(-143.116 170.406 89.3517)" fill="#CCDDE4"/>
<rect x="112.817" y="46.1375" width="5" height="5" transform="rotate(-143.116 112.817 46.1375)" fill="#CCDDE4"/>
</svg>
