<svg width="16" height="21" viewBox="0 0 16 21" fill="none" xmlns="http://www.w3.org/2000/svg">
<path d="M7.99998 6.00001C8.18122 6.00001 8.35632 6.06565 8.49291 6.18477C8.6295 6.3039 8.71833 6.46845 8.74298 6.64801L8.74998 6.75001V17.455L10.97 15.237C11.097 15.11 11.2653 15.0328 11.4444 15.0194C11.6235 15.006 11.8015 15.0573 11.946 15.164L12.03 15.236C12.1573 15.3631 12.2347 15.5316 12.2481 15.7109C12.2615 15.8903 12.21 16.0685 12.103 16.213L12.03 16.297L8.52998 19.797C8.40299 19.924 8.23464 20.0013 8.05553 20.0146C7.87642 20.028 7.69845 19.9767 7.55398 19.87L7.46998 19.797L3.96998 16.297C3.83702 16.163 3.75949 15.9838 3.75284 15.7951C3.7462 15.6065 3.81094 15.4223 3.93414 15.2793C4.05734 15.1362 4.22995 15.0449 4.4175 15.0236C4.60506 15.0022 4.79377 15.0524 4.94598 15.164L5.02998 15.236L7.24998 17.455V6.75001C7.24998 6.55109 7.329 6.36033 7.46965 6.21968C7.6103 6.07902 7.80107 6.00001 7.99998 6.00001V6.00001ZM7.99998 5.62921e-06C9.70529 -0.00215593 11.3527 0.618264 12.633 1.74477C13.9132 2.87128 14.7382 4.42639 14.9531 6.11811C15.1679 7.80983 14.7578 9.5218 13.7998 10.9326C12.8418 12.3433 11.4017 13.3558 9.74998 13.78V12.216C10.9872 11.8008 12.0364 10.9592 12.7102 9.84156C13.384 8.72396 13.6384 7.40318 13.4281 6.11525C13.2177 4.82731 12.5562 3.65614 11.5618 2.811C10.5675 1.96587 9.30498 1.50184 7.99998 1.50184C6.69498 1.50184 5.43249 1.96587 4.43812 2.811C3.44374 3.65614 2.78228 4.82731 2.57191 6.11525C2.36154 7.40318 2.61599 8.72396 3.28978 9.84156C3.96357 10.9592 5.0128 11.8008 6.24998 12.216V13.779C4.59917 13.3541 3.16016 12.3413 2.20292 10.9309C1.24569 9.52039 0.836024 7.80909 1.05079 6.11805C1.26556 4.42701 2.09001 2.87245 3.36944 1.74605C4.64887 0.619637 6.29536 -0.00120428 7.99998 5.62921e-06V5.62921e-06ZM7.99998 2.50001C9.03908 2.49911 10.0465 2.85784 10.8511 3.51531C11.6558 4.17278 12.2081 5.08846 12.4144 6.10689C12.6206 7.12532 12.468 8.18375 11.9825 9.10246C11.497 10.0212 10.7086 10.7436 9.75098 11.147V9.43701C10.2667 9.06662 10.6516 8.54216 10.8503 7.9391C11.049 7.33605 11.0512 6.6855 10.8567 6.08109C10.6621 5.47669 10.2808 4.9496 9.76767 4.57568C9.2545 4.20176 8.63593 4.00031 8.00098 4.00031C7.36604 4.00031 6.74746 4.20176 6.23429 4.57568C5.72113 4.9496 5.33983 5.47669 5.14528 6.08109C4.95073 6.6855 4.95296 7.33605 5.15165 7.9391C5.35035 8.54216 5.73526 9.06662 6.25098 9.43701L6.24998 11.147C5.29348 10.7428 4.50616 10.0203 4.02146 9.10197C3.53676 8.18363 3.38449 7.12595 3.59047 6.10818C3.79645 5.09042 4.348 4.17517 5.15164 3.51758C5.95528 2.85998 6.96158 2.50048 7.99998 2.50001V2.50001Z" fill="#F8B200"/>
</svg>
