<svg width="18" height="12" viewBox="0 0 18 12" fill="none" xmlns="http://www.w3.org/2000/svg">
<path d="M3.5 0H0.5C0.225 0 0 0.225 0 0.5V11.5C0 11.775 0.225 12 0.5 12H3.5C3.775 12 4 11.775 4 11.5V0.5C4 0.225 3.775 0 3.5 0ZM3 3H1V2H3V3Z" fill="#4F00F8"/>
<path d="M8.5 0H5.5C5.225 0 5 0.225 5 0.5V11.5C5 11.775 5.225 12 5.5 12H8.5C8.775 12 9 11.775 9 11.5V0.5C9 0.225 8.775 0 8.5 0ZM8 3H6V2H8V3Z" fill="#4F00F8"/>
<path d="M11.954 0.772962L9.27499 2.12296C9.157 2.18295 9.06747 2.28711 9.0259 2.41277C8.98432 2.53844 8.99406 2.67544 9.05299 2.79396L13.553 11.724C13.613 11.842 13.7171 11.9315 13.8428 11.9731C13.9685 12.0146 14.1055 12.0049 14.224 11.946L16.903 10.596C17.021 10.536 17.1105 10.4318 17.1521 10.3062C17.1937 10.1805 17.1839 10.0435 17.125 9.92496L12.625 0.994962C12.565 0.876969 12.4608 0.787443 12.3352 0.745866C12.2095 0.70429 12.0725 0.714028 11.954 0.772962V0.772962Z" fill="#4F00F8"/>
<path d="M14.5 11.5C14.5 11.6326 14.4473 11.7598 14.3536 11.8536C14.2598 11.9473 14.1326 12 14 12C13.8674 12 13.7402 11.9473 13.6464 11.8536C13.5527 11.7598 13.5 11.6326 13.5 11.5C13.5 11.3674 13.5527 11.2402 13.6464 11.1464C13.7402 11.0527 13.8674 11 14 11C14.1326 11 14.2598 11.0527 14.3536 11.1464C14.4473 11.2402 14.5 11.3674 14.5 11.5Z" fill="#4F00F8"/>
</svg>
