<svg width="85" height="101" viewBox="0 0 85 101" fill="none" xmlns="http://www.w3.org/2000/svg">
<path d="M24.1214 101C3.42807 89.3374 -2.02004 78.2984 1.0948 63.2216C3.39432 52.0888 10.924 43.0312 11.6459 31.9198C14.8624 37.7731 16.2063 41.9938 16.5657 48.1104C26.7956 35.5768 33.5557 18.226 33.956 0C33.956 0 60.6011 15.6558 62.3494 39.3042C64.6432 34.4298 65.7979 26.6882 63.5041 21.6709C70.3853 26.6885 110.662 71.2314 58.0486 101C67.9405 81.7395 60.6005 55.7511 43.4256 43.7483C44.5726 48.9093 42.5616 68.1584 34.9633 76.6167C37.0686 62.4837 32.9601 56.5077 32.9601 56.5077C32.9601 56.5077 31.55 64.4239 26.0788 72.4207C21.0827 79.7232 17.6209 87.4737 24.1214 101V101Z" fill="#FF0000"/>
</svg>
