<svg width="34" height="34" viewBox="0 0 34 34" fill="none" xmlns="http://www.w3.org/2000/svg">
<path d="M30.8125 27.625H29.75V34L23.375 27.625H9.5625C8.38932 27.625 7.48177 27.1159 6.83984 26.0977L11.6875 21.25H24.4375C25.8984 21.25 27.1491 20.7298 28.1895 19.6895C29.2298 18.6491 29.75 17.3984 29.75 15.9375V8.5H30.8125C31.6979 8.5 32.4505 8.8099 33.0703 9.42969C33.6901 10.0495 34 10.8021 34 11.6875V24.4375C34 25.3229 33.6901 26.0755 33.0703 26.6953C32.4505 27.3151 31.6979 27.625 30.8125 27.625V27.625ZM24.4375 19.125H10.625L4.25 25.5V19.125H3.1875C2.30208 19.125 1.54948 18.8151 0.929688 18.1953C0.309896 17.5755 0 16.8229 0 15.9375V3.1875C0 2.30208 0.309896 1.54948 0.929688 0.929688C1.54948 0.309896 2.30208 0 3.1875 0H24.4375C25.3229 0 26.0755 0.309896 26.6953 0.929688C27.3151 1.54948 27.625 2.30208 27.625 3.1875V15.9375C27.625 16.8229 27.3151 17.5755 26.6953 18.1953C26.0755 18.8151 25.3229 19.125 24.4375 19.125Z" fill="#4F00F8"/>
</svg>
