<svg width="19" height="14" viewBox="0 0 19 14" fill="none" xmlns="http://www.w3.org/2000/svg">
<path d="M8.76203 3.63156L3.00047 8.37687V13.4984C3.00047 13.631 3.05315 13.7582 3.14691 13.852C3.24068 13.9458 3.36786 13.9984 3.50047 13.9984L7.00234 13.9894C7.13452 13.9887 7.26105 13.9357 7.35428 13.842C7.44751 13.7484 7.49984 13.6216 7.49984 13.4894V10.4984C7.49984 10.3658 7.55252 10.2387 7.64629 10.1449C7.74006 10.0511 7.86723 9.99844 7.99984 9.99844H9.99984C10.1325 9.99844 10.2596 10.0511 10.3534 10.1449C10.4472 10.2387 10.4998 10.3658 10.4998 10.4984V13.4872C10.4996 13.553 10.5124 13.6182 10.5375 13.679C10.5625 13.7399 10.5993 13.7952 10.6457 13.8418C10.6922 13.8883 10.7474 13.9253 10.8081 13.9505C10.8689 13.9758 10.9341 13.9888 10.9998 13.9888L14.5005 13.9984C14.6331 13.9984 14.7603 13.9458 14.854 13.852C14.9478 13.7582 15.0005 13.631 15.0005 13.4984V8.37344L9.24016 3.63156C9.17244 3.57698 9.08807 3.54721 9.00109 3.54721C8.91411 3.54721 8.82975 3.57698 8.76203 3.63156V3.63156ZM17.863 6.85687L15.2505 4.70344V0.375C15.2505 0.275544 15.211 0.180161 15.1406 0.109835C15.0703 0.0395089 14.9749 0 14.8755 0H13.1255C13.026 0 12.9306 0.0395089 12.8603 0.109835C12.79 0.180161 12.7505 0.275544 12.7505 0.375V2.64406L9.95266 0.342188C9.68416 0.121243 9.34725 0.00044167 8.99953 0.00044167C8.65182 0.00044167 8.3149 0.121243 8.04641 0.342188L0.136093 6.85687C0.0981207 6.88826 0.0667043 6.92682 0.0436393 6.97035C0.0205743 7.01388 0.00631274 7.06153 0.00166942 7.11058C-0.00297389 7.15962 0.00209208 7.2091 0.0165779 7.25619C0.0310637 7.30328 0.0546854 7.34705 0.0860934 7.385L0.882968 8.35375C0.914291 8.39184 0.952817 8.42337 0.996343 8.44655C1.03987 8.46973 1.08754 8.48409 1.13662 8.48882C1.18571 8.49356 1.23524 8.48856 1.28239 8.47412C1.32954 8.45969 1.37339 8.43609 1.41141 8.40469L8.76203 2.35031C8.82975 2.29573 8.91411 2.26596 9.00109 2.26596C9.08807 2.26596 9.17244 2.29573 9.24016 2.35031L16.5911 8.40469C16.629 8.4361 16.6728 8.45972 16.7199 8.4742C16.767 8.48869 16.8165 8.49376 16.8655 8.48911C16.9146 8.48447 16.9622 8.47021 17.0057 8.44714C17.0493 8.42408 17.0878 8.39266 17.1192 8.35469L17.9161 7.38594C17.9475 7.34776 17.971 7.30377 17.9853 7.25647C17.9996 7.20918 18.0044 7.15953 17.9995 7.11036C17.9946 7.0612 17.98 7.01349 17.9565 6.96999C17.9331 6.92649 17.9013 6.88805 17.863 6.85687V6.85687Z" fill="#4F00F8"/>
</svg>
