<svg width="224" height="160" viewBox="0 0 224 160" fill="none" xmlns="http://www.w3.org/2000/svg">
<path d="M208 0H48C43.758 0.00476422 39.6911 1.69201 36.6916 4.69156C33.692 7.6911 32.0048 11.758 32 16V136C32 138.122 31.1571 140.157 29.6569 141.657C28.1566 143.157 26.1217 144 24 144C21.8783 144 19.8434 143.157 18.3431 141.657C16.8429 140.157 16 138.122 16 136V40C16 37.8783 15.1571 35.8434 13.6569 34.3431C12.1566 32.8429 10.1217 32 8 32C5.87827 32 3.84344 32.8429 2.34315 34.3431C0.842854 35.8434 0 37.8783 0 40V136.106C0.0351168 142.451 2.57832 148.524 7.07462 153C11.5709 157.477 17.6553 159.993 24 160H200C206.363 159.993 212.463 157.462 216.963 152.963C221.462 148.463 223.993 142.363 224 136V16C223.995 11.758 222.308 7.6911 219.308 4.69156C216.309 1.69201 212.242 0.00476422 208 0V0ZM168 104H88C85.8783 104 83.8434 103.157 82.3431 101.657C80.8429 100.157 80 98.1217 80 96C80 93.8783 80.8429 91.8434 82.3431 90.3431C83.8434 88.8428 85.8783 88 88 88H168C170.122 88 172.157 88.8428 173.657 90.3431C175.157 91.8434 176 93.8783 176 96C176 98.1217 175.157 100.157 173.657 101.657C172.157 103.157 170.122 104 168 104ZM168 72H88C85.8783 72 83.8434 71.1571 82.3431 69.6569C80.8429 68.1566 80 66.1217 80 64C80 61.8783 80.8429 59.8434 82.3431 58.3431C83.8434 56.8429 85.8783 56 88 56H168C170.122 56 172.157 56.8429 173.657 58.3431C175.157 59.8434 176 61.8783 176 64C176 66.1217 175.157 68.1566 173.657 69.6569C172.157 71.1571 170.122 72 168 72Z" fill="#FF0000"/>
</svg>
