<svg width="166" height="130" viewBox="0 0 166 130" fill="none" xmlns="http://www.w3.org/2000/svg">
<path d="M70.8452 9.51358L64.8257 0.263184C23.152 28.2456 0 62.2409 0 90.2233C0 117.281 19.9107 130 36.8117 130C58.1116 130 73.1604 111.962 73.1604 92.9984C73.1604 77.0415 62.9735 63.3972 49.3138 58.3094C45.378 56.9219 41.6736 55.7656 41.6736 49.059C41.6736 40.5024 47.9247 27.7831 70.8452 9.51358ZM162.759 9.51358L156.739 0.263184C115.529 28.2456 91.9135 62.2409 91.9135 90.2233C91.9135 117.281 112.287 130 129.188 130C150.72 130 166 111.962 166 92.9984C166 77.0415 155.582 63.3972 141.459 58.3094C137.523 56.9219 134.05 55.7656 134.05 49.059C134.05 40.5024 140.533 27.7831 162.759 9.51358Z" fill="white"/>
</svg>
