<svg width="47" height="48" viewBox="0 0 47 48" fill="none" xmlns="http://www.w3.org/2000/svg">
<path d="M46.6379 21.84H24.5018V28.392H40.2167C39.4201 37.536 31.7678 41.448 24.5259 41.448C15.2804 41.448 7.16949 34.2 7.16949 24C7.16949 14.16 14.8942 6.552 24.5501 6.552C32.0092 6.552 36.3785 11.28 36.3785 11.28L40.9651 6.528C40.9651 6.528 35.075 0 24.3087 0C10.5973 0 0 11.52 0 24C0 36.12 9.9697 48 24.6708 48C37.5855 48 47 39.192 47 26.184C47 23.424 46.6379 21.84 46.6379 21.84Z" fill="#FF0000"/>
</svg>
